PathFileType	4	(X/Y/Z)	C:/Users/opensim2020/Desktop/walking_exp_matlab/subject03_walking04_straight_03.trc																																																																																																																																																							
DataRate	CameraRate	NumFrames	NumMarkers	Units	OrigDataRate	OrigDataStartFrame	OrigNumFrames																																																																																																																																																			
100	100	7	51	mm	100	2469	256																																																																																																																																																			
Frame#	Time	LFHD			RFHD			LBHD			RBHD			C7			T10			CLAV			STRN			RBAK			LSHO			LUPA			LELB			LFRM			LWRA			LWRB			LFIN			RSHO			RUPA			RELB			RFRM			RWRA			RWRB			RFIN			LASI			RASI			LPSI			RPSI			LTHI			LKNE			LTIB			LANK			LHEE			LTOE			RTHI			RKNE			RTIB			RANK			RHEE			RTOE			*39			*40			*41			*42			*43			*44			*45			*46			*47			*48			*49			*50		
		X1	Y1	Z1	X2	Y2	Z2	X3	Y3	Z3	X4	Y4	Z4	X5	Y5	Z5	X6	Y6	Z6	X7	Y7	Z7	X8	Y8	Z8	X9	Y9	Z9	X10	Y10	Z10	X11	Y11	Z11	X12	Y12	Z12	X13	Y13	Z13	X14	Y14	Z14	X15	Y15	Z15	X16	Y16	Z16	X17	Y17	Z17	X18	Y18	Z18	X19	Y19	Z19	X20	Y20	Z20	X21	Y21	Z21	X22	Y22	Z22	X23	Y23	Z23	X24	Y24	Z24	X25	Y25	Z25	X26	Y26	Z26	X27	Y27	Z27	X28	Y28	Z28	X29	Y29	Z29	X30	Y30	Z30	X31	Y31	Z31	X32	Y32	Z32	X33	Y33	Z33	X34	Y34	Z34	X35	Y35	Z35	X36	Y36	Z36	X37	Y37	Z37	X38	Y38	Z38	X39	Y39	Z39	X40	Y40	Z40	X41	Y41	Z41	X42	Y42	Z42	X43	Y43	Z43	X44	Y44	Z44	X45	Y45	Z45	X46	Y46	Z46	X47	Y47	Z47	X48	Y48	Z48	X49	Y49	Z49	X50	Y50	Z50	X51	Y51	Z51
																																																																																																																																																										
225	2.24	988.98407	1604.39014	-1209.76355	947.87177	1605.26685	-1083.05115	859.66888	1589.78284	-1247.93127	823.43384	1589.34729	-1122.07153	790.96008	1418.30798	-1201.32263	762.82404	1100.21301	-1202.08875	911.25153	1343.08801	-1181.74072	959.11743	1179.35901	-1181.01221	727.73254	1238.43323	-1110.65356	889.29419	1379.13269	-1341.51025	914.07001	1185.50452	-1417.29614	939.52429	1065.40051	-1429.75098	984.10791	942.97882	-1421.5874	1011.4386	828.87897	-1387.70337	1004.90326	832.90057	-1442.90723	1034.21704	755.21423	-1430.51782	842.99908	1365.57007	-1030.04285	847.55652	1142.16003	-958.56677	870.09814	1031.89905	-944.50159	899.98816	898.33124	-942.53308	944.05023	807.70581	-976.1673	909.10828	798.27161	-935.51501	940.18427	730.36292	-944.42651	943.10083	941.88184	-1301.18933	918.25928	937.94818	-1064.16968	776.31134	965.78278	-1265.95886	763.00146	964.31171	-1117.68591	879.74359	640.15027	-1344.00659	870.31818	462.10782	-1303.43994	808.49329	276.13867	-1310.04578	770.73444	68.95049	-1271.95081	726.98767	35.19866	-1240.03113	920.89832	29.11875	-1247.2561	932.78259	644.74994	-1026.07043	1004.39807	479.81604	-1052.17944	900.49805	318.33627	-1059.05627	787.36859	137.11914	-1110.80457	735.95422	125.58585	-1166.91162	894.85944	46.9214	-1120.95117	909.57562	1681.11719	-1180.1853	NaN	NaN	NaN	NaN	NaN	NaN	NaN	NaN	NaN	NaN	NaN	NaN	NaN	NaN	NaN	NaN	NaN	NaN	NaN	NaN	NaN	NaN	NaN	NaN	NaN	NaN	NaN	NaN	NaN	NaN	NaN	NaN	NaN
226	2.25	999.41217	1603.1272	-1207.99731	957.85938	1603.8606	-1081.42261	870.13898	1589.45471	-1246.67163	833.44904	1588.75818	-1120.9585	800.12378	1418.00598	-1201.01221	772.02582	1099.38379	-1202.01733	920.31671	1342.51172	-1180.94727	967.89642	1178.82898	-1180.30847	736.46466	1237.61084	-1110.94531	898.92371	1378.84253	-1340.60596	926.52185	1186.03357	-1416.88159	954.11621	1066.57813	-1429.72205	1001.36273	945.1759	-1421.41345	1031.44568	831.83667	-1387.36475	1024.64514	835.42511	-1442.46106	1055.69324	758.47089	-1430.04285	851.30408	1364.80054	-1029.42249	853.95001	1141.33557	-958.03558	875.09717	1030.81262	-943.94025	904.06268	897.07788	-942.11877	947.95178	806.37115	-975.69519	912.62299	797.05884	-935.41901	943.29688	728.83325	-944.26617	952.12091	941.11389	-1300.9126	927.72784	937.7417	-1063.51367	785.40558	965.15143	-1265.58667	771.97156	963.61212	-1117.41614	886.01355	639.55511	-1343.5979	874.39508	461.80508	-1303.33875	810.75854	276.33316	-1309.95166	771.04895	69.4214	-1271.96436	727.03961	35.83427	-1239.98218	920.94281	29.0948	-1247.34692	943.94098	645.44586	-1025.09155	1018.02496	481.40839	-1051.87244	921.43103	314.91025	-1058.9137	817.83728	128.06596	-1111.3429	767.31921	113.51424	-1167.73254	930.1106	44.20206	-1120.89807	920.37769	1680.2439	-1178.4198	NaN	NaN	NaN	NaN	NaN	NaN	NaN	NaN	NaN	NaN	NaN	NaN	NaN	NaN	NaN	NaN	NaN	NaN	NaN	NaN	NaN	NaN	NaN	NaN	NaN	NaN	NaN	NaN	NaN	NaN	NaN	NaN	NaN
227	2.26	1009.86908	1601.73633	-1206.2002	967.91974	1602.28333	-1079.77625	880.63129	1589.02283	-1245.35742	843.5318	1588.10486	-1119.77319	809.41394	1417.49084	-1200.52795	781.18097	1098.87183	-1201.98755	929.3443	1341.85144	-1180.09119	977.03351	1178.23059	-1179.52112	745.19525	1236.76941	-1111.10461	908.48596	1378.40771	-1339.69238	938.90045	1186.52905	-1416.49048	968.67755	1067.68042	-1429.67078	1018.55957	947.39172	-1421.24329	1051.2627	834.80731	-1387.00232	1044.42395	838.23425	-1442.09607	1076.91382	761.72534	-1429.41675	859.59625	1363.79968	-1028.78491	860.47375	1140.4165	-957.49567	880.26617	1029.68726	-943.37469	908.30682	895.74573	-941.69208	951.84985	804.87329	-975.15558	916.19604	795.59399	-935.29987	946.50317	727.19574	-944.24725	961.20093	940.4209	-1300.68274	936.79779	937.19537	-1063.26147	794.44452	964.59308	-1265.08398	781.06451	962.9433	-1116.97864	892.07318	639.03955	-1343.11609	878.32593	461.35223	-1303.1709	812.95526	276.51056	-1309.76074	771.42053	69.92216	-1272.02026	726.69934	36.67202	-1239.76282	921.03143	29.13653	-1247.27771	955.38348	645.82556	-1024.04785	1031.03235	482.6217	-1051.37256	942.05981	311.35406	-1058.63684	848.96802	119.23029	-1111.55688	799.72266	102.14561	-1167.89819	965.76349	42.09213	-1120.49023	931.23486	1679.24634	-1176.63354	NaN	NaN	NaN	NaN	NaN	NaN	NaN	NaN	NaN	NaN	NaN	NaN	NaN	NaN	NaN	NaN	NaN	NaN	NaN	NaN	NaN	NaN	NaN	NaN	NaN	NaN	NaN	NaN	NaN	NaN	NaN	NaN	NaN
228	2.27	1020.34259	1600.21912	-1204.3219	978.01459	1600.57507	-1078.02063	891.15558	1588.50977	-1243.98035	853.60797	1587.34399	-1118.53516	818.74164	1416.86377	-1200.0636	790.32898	1098.05225	-1201.76184	938.27509	1341.01733	-1179.08154	986.21454	1177.5166	-1178.7334	753.96606	1235.79089	-1111.21631	918.01007	1377.8252	-1338.76416	951.12152	1186.91589	-1415.96631	983.01166	1068.71777	-1429.48584	1035.59998	949.61847	-1420.97925	1070.95032	837.92944	-1386.56714	1063.81628	840.96228	-1441.59033	1097.79712	765.04346	-1428.68982	867.9552	1362.89172	-1028.12708	867.07764	1139.35986	-956.90356	885.61646	1028.48889	-942.84558	912.70917	894.33112	-941.20972	955.80878	803.30933	-974.60876	919.79254	793.92981	-935.30969	949.65796	725.42584	-944.19281	970.15021	939.55994	-1300.36987	946.12244	936.76556	-1063.04529	803.53412	963.91736	-1264.51013	790.23181	962.23187	-1116.53003	898.08093	638.53015	-1342.53418	882.31177	460.97836	-1302.88477	815.21594	276.7356	-1309.39685	771.66425	70.40978	-1272.00916	726.73865	37.41583	-1239.6792	921.14337	29.1746	-1247.28918	966.05493	646.11078	-1022.9314	1043.21069	483.4111	-1050.79236	962.35089	307.74689	-1058.23755	880.29468	110.69217	-1111.61975	832.73059	90.78658	-1168.09216	1001.63141	40.51946	-1119.88989	940.85486	1677.52258	-1173.50818	NaN	NaN	NaN	NaN	NaN	NaN	NaN	NaN	NaN	NaN	NaN	NaN	NaN	NaN	NaN	NaN	NaN	NaN	NaN	NaN	NaN	NaN	NaN	NaN	NaN	NaN	NaN	NaN	NaN	NaN	NaN	NaN	NaN
229	2.28	1030.84363	1598.61816	-1202.40356	988.08771	1598.7583	-1076.30762	901.70294	1587.9541	-1242.56226	863.73706	1586.48987	-1117.22351	828.16437	1416.11353	-1199.46936	799.49457	1097.19824	-1201.34424	946.99957	1339.93323	-1177.83337	995.42029	1176.58032	-1177.89307	762.77197	1234.80396	-1111.20105	927.54175	1377.19202	-1337.84607	963.18799	1187.24585	-1415.37012	997.28284	1069.72888	-1429.21582	1052.35803	951.79486	-1420.64746	1090.35315	841.04858	-1385.99988	1082.88892	843.68744	-1440.99512	1118.40088	768.3858	-1427.8158	876.40308	1361.85034	-1027.45813	873.72498	1138.29199	-956.31891	891.12018	1027.17725	-942.31146	917.20465	892.86102	-940.77246	959.81647	801.64148	-974.08521	923.56512	792.33362	-935.02704	952.8858	723.60217	-944.14642	979.12006	938.59039	-1300.02856	955.57764	936.21045	-1062.76685	812.66168	963.13434	-1263.91895	799.50549	961.4397	-1115.95703	904.19409	637.99487	-1341.95886	886.34546	460.57578	-1302.51538	817.34033	276.93448	-1309.22595	771.87628	70.98044	-1271.80127	726.81219	38.1697	-1239.53125	921.3913	29.42083	-1247.48254	976.4176	646.0694	-1021.80078	1054.5437	483.7291	-1050.21069	982.43671	304.10794	-1057.70166	912.49457	102.08536	-1111.58447	865.74969	79.42463	-1167.89807	1037.61377	39.53988	-1119.20325	951.79083	1676.29114	-1171.53821	NaN	NaN	NaN	NaN	NaN	NaN	NaN	NaN	NaN	NaN	NaN	NaN	NaN	NaN	NaN	NaN	NaN	NaN	NaN	NaN	NaN	NaN	NaN	NaN	NaN	NaN	NaN	NaN	NaN	NaN	NaN	NaN	NaN
230	2.29	1041.32874	1596.90369	-1200.47742	998.23718	1596.87036	-1074.52014	912.2561	1587.32715	-1241.1062	873.92255	1585.65576	-1115.85303	837.69788	1415.30188	-1198.77258	808.69647	1096.32764	-1200.78931	956.34796	1338.82129	-1176.87097	1004.70721	1175.52319	-1177.13098	771.71576	1233.73425	-1111.13379	937.12396	1376.48535	-1336.80615	975.06702	1187.50488	-1414.73755	1011.35999	1070.60913	-1428.80359	1068.99707	954.06244	-1420.37561	1109.62744	844.27985	-1385.36646	1101.70642	846.41388	-1440.2749	1138.74585	771.82074	-1426.86304	884.8833	1360.63818	-1026.71008	880.41284	1137.06409	-955.6994	896.67792	1025.84985	-941.59515	921.84619	891.33685	-940.3573	964.1601	799.93665	-973.55444	927.50458	790.8349	-934.80261	956.23816	721.72687	-944.17554	987.85724	937.422	-1299.66919	965.14569	935.48145	-1062.43799	821.83679	962.25555	-1263.20862	808.84314	960.64484	-1115.255	910.5517	637.40717	-1341.35034	890.61981	460.21414	-1302.07935	819.50885	277.16556	-1308.93689	772.26056	71.69659	-1271.60718	726.9201	39.175	-1239.30701	921.21307	29.23055	-1247.31482	986.58771	645.77069	-1020.64294	1065.2998	483.6106	-1049.63428	1002.18811	300.5636	-1057.03809	944.90887	94.56106	-1111.15808	899.62244	69.03429	-1167.86963	1073.4574	39.16078	-1118.30554	962.77502	1674.99878	-1169.49585	NaN	NaN	NaN	NaN	NaN	NaN	NaN	NaN	NaN	NaN	NaN	NaN	NaN	NaN	NaN	NaN	NaN	NaN	NaN	NaN	NaN	NaN	NaN	NaN	NaN	NaN	NaN	NaN	NaN	NaN	NaN	NaN	NaN
231	2.3	1051.82605	1595.10706	-1198.52234	1008.37347	1594.92615	-1072.74622	922.80145	1586.59436	-1239.60864	884.13727	1584.75439	-1114.47046	847.33221	1414.37	-1197.96558	817.89459	1095.28223	-1200.12463	965.74561	1337.63391	-1175.82251	1014.09863	1174.3667	-1176.39197	780.6889	1232.62439	-1111.02393	946.77533	1375.68213	-1335.75073	986.74695	1187.54187	-1414.00464	1025.21204	1071.47229	-1428.30066	1085.29407	956.17468	-1419.84216	1128.4436	847.44897	-1384.5719	1120.08545	849.06866	-1439.42566	1158.74902	775.32129	-1425.79395	893.47314	1359.20776	-1025.91345	887.20862	1135.75061	-955.08441	902.54834	1024.36084	-941.15509	926.69781	889.69733	-939.93158	968.90869	798.24982	-972.86188	931.37622	789.09662	-934.33911	959.72089	719.76202	-944.10999	997.40753	936.6413	-1298.98438	974.71393	934.52832	-1062.06873	830.31683	961.66339	-1262.8877	818.22034	959.67163	-1114.53333	917.11707	636.6745	-1340.6637	894.89044	459.83978	-1301.65283	821.68555	277.45062	-1308.57483	772.31989	72.24107	-1271.30225	726.97937	40.17152	-1238.81384	921.23456	29.21909	-1247.2832	995.98572	644.89783	-1019.68701	1075.38782	483.03116	-1049.15503	1021.6344	297.22623	-1056.25037	977.35675	87.98974	-1110.18677	933.8515	60.409	-1167.51355	1108.91309	39.44923	-1117.02502	973.76959	1673.60181	-1167.44958	NaN	NaN	NaN	NaN	NaN	NaN	NaN	NaN	NaN	NaN	NaN	NaN	NaN	NaN	NaN	NaN	NaN	NaN	NaN	NaN	NaN	NaN	NaN	NaN	NaN	NaN	NaN	NaN	NaN	NaN	NaN	NaN	NaN
